<?xml version="1.0" encoding="utf-8"?>
<!-- Generator: Adobe Illustrator 19.2.0, SVG Export Plug-In . SVG Version: 6.00 Build 0)  -->
<svg version="1.1" id="BUSINESS" xmlns="http://www.w3.org/2000/svg" xmlns:xlink="http://www.w3.org/1999/xlink" x="0px" y="0px"
	 viewBox="0 0 24 24" style="enable-background:new 0 0 24 24;" xml:space="preserve">
<style type="text/css">
	.st0{fill:#10b981;}
</style>
<g id="Speed">
	<path class="st0" d="M17.6,5.6L13,10.3c-0.3-0.2-0.6-0.3-1-0.3c-1.1,0-2,0.9-2,2s0.9,2,2,2c1.1,0,2-0.9,2-2c0-0.4-0.1-0.7-0.3-1
		l4.6-4.6L17.6,5.6z M12,13c-0.6,0-1-0.4-1-1s0.4-1,1-1s1,0.4,1,1S12.6,13,12,13z"/>
	<path class="st0" d="M9,16c-1.1,0-2,0.9-2,2s0.9,2,2,2h6c1.1,0,2-0.9,2-2s-0.9-2-2-2H9z M16,18c0,0.6-0.4,1-1,1H9c-0.6,0-1-0.4-1-1
		s0.4-1,1-1h6C15.6,17,16,17.4,16,18z"/>
	<rect x="11" y="3" class="st0" width="1" height="2"/>
	<rect x="3" y="12" class="st0" width="2" height="1"/>
	<rect x="19" y="12" class="st0" width="2" height="1"/>
	<path class="st0" d="M20.4,5l0.7-0.7c-0.4-0.5-0.9-1-1.4-1.4L19,3.6C19.5,4,20,4.5,20.4,5z"/>
	<path class="st0" d="M22.3,5.9l-0.7,0.7C22.4,8.3,23,10.1,23,12c0,6.1-4.9,11-11,11S1,18.1,1,12S5.9,1,12,1c2,0,3.8,0.5,5.4,1.4
		l0.7-0.7C16.3,0.6,14.2,0,12,0C5.3,0,0,5.4,0,12c0,6.6,5.4,12,12,12c6.6,0,12-5.4,12-12C24,9.8,23.3,7.7,22.3,5.9z"/>
</g>
</svg>
