<?xml version="1.0" encoding="utf-8"?>
<!-- Generator: Adobe Illustrator 19.2.0, SVG Export Plug-In . SVG Version: 6.00 Build 0)  -->
<svg version="1.1" id="BUSINESS" xmlns="http://www.w3.org/2000/svg" xmlns:xlink="http://www.w3.org/1999/xlink" x="0px" y="0px"
	 viewBox="0 0 24 24" style="enable-background:new 0 0 24 24;" xml:space="preserve">
<style type="text/css">
	.st0{fill:#3b82f6;}
</style>
<g id="Signature">
	<polygon class="st0" points="19.9,7.6 21.1,6 20.3,5.3 19.1,6.9 	"/>
	<path class="st0" d="M18,8.6L13,15.3L8.7,11l13.2-9.7l0.8,0.8l-1.1,1.6l0.7,0.7L24,2l-2-2L7,11l-0.9,2.8L2,15l-2,9l9-2l1.2-4.1
		L13,17l5.7-7.7L18,8.6z M8.2,21.2l-6.9,1.5l1.5-6.9l3.9-1.1l0.9,0.9L6.2,17c-0.1,0-0.2,0-0.2,0c-0.6,0-1,0.4-1,1c0,0.6,0.4,1,1,1
		s1-0.4,1-1c0-0.1,0-0.2,0-0.2l1.4-1.4l0.9,0.9L8.2,21.2z M12.4,16.2l-2.1,0.7l-3.1-3.1l0.7-2.1l0,0L12.4,16.2L12.4,16.2z"/>
</g>
</svg>
