<?xml version="1.0" encoding="utf-8"?>
<!-- Generator: Adobe Illustrator 19.2.0, SVG Export Plug-In . SVG Version: 6.00 Build 0)  -->
<svg version="1.1" id="BUSINESS" xmlns="http://www.w3.org/2000/svg" xmlns:xlink="http://www.w3.org/1999/xlink" x="0px" y="0px"
	 viewBox="0 0 24 24" style="enable-background:new 0 0 24 24;" xml:space="preserve">
<style type="text/css">
	.st0{fill:#3b82f6;}
</style>
<g id="Edit">
	<path class="st0" d="M17.6,11.6C17.9,10.8,18,9.9,18,9c0-5-4-9-9-9C7.8,0,6.7,0.2,5.7,0.7L10,5L9,9l-4,1L0.7,5.7C0.2,6.7,0,7.8,0,9
		c0,5,4,9,9,9c0.9,0,1.8-0.1,2.6-0.4L18,24l6-6L17.6,11.6z M20.6,19.9l-3.3-3.3l-0.7,0.7l3.3,3.3L18,22.6l-6.1-6.1
		C10.9,16.8,10,17,9,17c-4.4,0-8-3.6-8-8c0-0.5,0-1,0.1-1.5l3.6,3.6c0,0,3.6-0.9,5.1-1.3l1.3-5.1L7.5,1.1C8,1,8.5,1,9,1
		c4.4,0,8,3.6,8,8c0,1-0.2,1.9-0.5,2.9c2,2,4.1,4.1,6.1,6.1L20.6,19.9z"/>
	<rect x="13.5" y="12.6" transform="matrix(0.7071 -0.7071 0.7071 0.7071 -5.799 14)" class="st0" width="1" height="2.8"/>
</g>
</svg>
