<?xml version="1.0" encoding="utf-8"?>
<!-- Generator: Adobe Illustrator 19.2.0, SVG Export Plug-In . SVG Version: 6.00 Build 0)  -->
<svg version="1.1" id="BUSINESS" xmlns="http://www.w3.org/2000/svg" xmlns:xlink="http://www.w3.org/1999/xlink" x="0px" y="0px"
	 viewBox="0 0 24 24" style="enable-background:new 0 0 24 24;" xml:space="preserve">
<style type="text/css">
	.st0{fill:#eab308;}
</style>
<g id="_x0A_Honor">
	<path class="st0" d="M12,0C7.6,0,4,3.6,4,8c0,2.5,1.2,4.8,3,6.2V24l5-2l5,2v-4h-1v2.5l-3.6-1.5L12,20.9l-0.4,0.1L8,22.5v-7.6l0,0
		c1.2,0.7,2.5,1.1,4,1.1c4.4,0,8-3.6,8-8S16.4,0,12,0z M12,15c-3.9,0-7-3.1-7-7s3.1-7,7-7s7,3.1,7,7S15.9,15,12,15z"/>
	<path class="st0" d="M12,3C9.2,3,7,5.2,7,8s2.2,5,5,5s5-2.2,5-5S14.8,3,12,3z M12,12c-2.2,0-4-1.8-4-4s1.8-4,4-4c2.2,0,4,1.8,4,4
		S14.2,12,12,12z"/>
	<rect x="16" y="16" class="st0" width="1" height="2"/>
</g>
</svg>
