<?xml version="1.0" encoding="utf-8"?>
<!-- Generator: Adobe Illustrator 19.2.0, SVG Export Plug-In . SVG Version: 6.00 Build 0)  -->
<svg version="1.1" id="BUSINESS" xmlns="http://www.w3.org/2000/svg" xmlns:xlink="http://www.w3.org/1999/xlink" x="0px" y="0px"
	 viewBox="0 0 24 24" style="enable-background:new 0 0 24 24;" xml:space="preserve">
<style type="text/css">
	.st0{fill:#3b82f6;}
</style>
<g id="Strategy">
	<path class="st0" d="M14,13c2.2,0,4-1.8,4-4V2.1l2.7,2.3l0.7-0.8l-3.8-3.3l-3.8,3.3l0.7,0.8L17,2.1V9c0,1.7-1.3,3-3,3H9
		c-2.2,0-4,2.8-4,5v3h1v-3c0-1.7,1.3-4,3-4H14z"/>
	<path class="st0" d="M2,1h12V0H2C0.9,0,0,0.9,0,2v20c0,1.1,0.9,2,2,2v-1c-0.6,0-1-0.4-1-1V2C1,1.4,1.4,1,2,1z"/>
	<rect x="5" y="22" class="st0" width="1" height="2"/>
	<polygon class="st0" points="5.4,8.4 7,6.7 8.6,8.4 9.4,7.6 7.7,6 9.4,4.4 8.6,3.6 7,5.3 5.4,3.6 4.6,4.4 6.3,6 4.6,7.6 	"/>
	<polygon class="st0" points="19.6,15.6 18,17.3 16.4,15.6 15.6,16.4 17.3,18 15.6,19.6 16.4,20.4 18,18.7 19.6,20.4 20.4,19.6 
		18.7,18 20.4,16.4 	"/>
	<path class="st0" d="M23,2h1c0-1.1-0.9-2-2-2h-1v1h1C22.6,1,23,1.4,23,2z"/>
	<path class="st0" d="M23,22c0,0.6-0.4,1-1,1H9v1h13c1.1,0,2-0.9,2-2V8h-1V22z"/>
	<rect x="23" y="4" class="st0" width="1" height="2"/>
</g>
</svg>
