<?xml version="1.0" encoding="utf-8"?>
<!-- Generator: Adobe Illustrator 19.2.0, SVG Export Plug-In . SVG Version: 6.00 Build 0)  -->
<svg version="1.1" id="BUSINESS" xmlns="http://www.w3.org/2000/svg" xmlns:xlink="http://www.w3.org/1999/xlink" x="0px" y="0px"
	 viewBox="0 0 24 24" style="enable-background:new 0 0 24 24;" xml:space="preserve">
<style type="text/css">
	.st0{fill:#3b82f6;}
</style>
<g id="_x0A_Bookmarks">
	<path class="st0" d="M21,22c0,0.6-0.4,1-1,1H7V1h3v9l4-3l4,3V1h2c0.6,0,1,0.4,1,1h1c0-1.1-0.9-2-2-2H4C2.9,0,2,0.9,2,2v20
		c0,1.1,0.9,2,2,2h16c1.1,0,2-0.9,2-2V8h-1V22z M17,1v7l-3-2.2L11,8V1H17z M4,23c-0.6,0-1-0.4-1-1V2c0-0.6,0.4-1,1-1h2v22H4z"/>
	<rect x="21" y="4" class="st0" width="1" height="2"/>
</g>
</svg>
