<?xml version="1.0" encoding="utf-8"?>
<!-- Generator: Adobe Illustrator 19.2.0, SVG Export Plug-In . SVG Version: 6.00 Build 0)  -->
<svg version="1.1" id="BUSINESS" xmlns="http://www.w3.org/2000/svg" xmlns:xlink="http://www.w3.org/1999/xlink" x="0px" y="0px"
	 viewBox="0 0 24 24" style="enable-background:new 0 0 24 24;" xml:space="preserve">
<style type="text/css">
	.st0{fill:#f43f5e;}
</style>
<g id="Innovation">
	<path class="st0" d="M12,6c1.7,0,3-1.3,3-3s-1.3-3-3-3S9,1.3,9,3S10.3,6,12,6z M12,1c1.1,0,2,0.9,2,2s-0.9,2-2,2c-1.1,0-2-0.9-2-2
		S10.9,1,12,1z"/>
	<path class="st0" d="M21,9c-1.7,0-3,1.3-3,3s1.3,3,3,3s3-1.3,3-3S22.7,9,21,9z M21,14c-1.1,0-2-0.9-2-2s0.9-2,2-2c1.1,0,2,0.9,2,2
		S22.1,14,21,14z"/>
	<path class="st0" d="M3,15c1.7,0,3-1.3,3-3S4.7,9,3,9s-3,1.3-3,3S1.3,15,3,15z M3,10c1.1,0,2,0.9,2,2s-0.9,2-2,2c-1.1,0-2-0.9-2-2
		S1.9,10,3,10z"/>
	<path class="st0" d="M12,18c-1.7,0-3,1.3-3,3s1.3,3,3,3s3-1.3,3-3S13.7,18,12,18z M12,23c-1.1,0-2-0.9-2-2s0.9-2,2-2
		c1.1,0,2,0.9,2,2S13.1,23,12,23z"/>
	<path class="st0" d="M21,18c-0.6,0-1.2,0.2-1.7,0.6l-3.4-3.4c0.7-0.9,1.1-1.9,1.1-3.1s-0.4-2.3-1.1-3.1l3.4-3.4
		C19.8,5.8,20.4,6,21,6c1.7,0,3-1.3,3-3s-1.3-3-3-3s-3,1.3-3,3c0,0.6,0.2,1.2,0.6,1.7l-3.4,3.4C14.3,7.4,13.2,7,12,7
		S9.7,7.4,8.9,8.1L5.4,4.7C5.8,4.2,6,3.6,6,3c0-1.7-1.3-3-3-3S0,1.3,0,3s1.3,3,3,3c0.6,0,1.2-0.2,1.7-0.6l3.4,3.4
		C7.4,9.7,7,10.8,7,12s0.4,2.3,1.1,3.1l-3.4,3.4C4.2,18.2,3.6,18,3,18c-1.7,0-3,1.3-3,3s1.3,3,3,3s3-1.3,3-3c0-0.6-0.2-1.2-0.6-1.7
		l3.4-3.4C9.7,16.6,10.8,17,12,17s2.3-0.4,3.1-1.1l3.4,3.4C18.2,19.8,18,20.4,18,21c0,1.7,1.3,3,3,3s3-1.3,3-3S22.7,18,21,18z M21,1
		c1.1,0,2,0.9,2,2s-0.9,2-2,2c-1.1,0-2-0.9-2-2S19.9,1,21,1z M3,5C1.9,5,1,4.1,1,3s0.9-2,2-2c1.1,0,2,0.9,2,2S4.1,5,3,5z M3,23
		c-1.1,0-2-0.9-2-2s0.9-2,2-2c1.1,0,2,0.9,2,2S4.1,23,3,23z M8,12c0-2.2,1.8-4,4-4c2.2,0,4,1.8,4,4s-1.8,4-4,4C9.8,16,8,14.2,8,12z
		 M21,23c-1.1,0-2-0.9-2-2s0.9-2,2-2c1.1,0,2,0.9,2,2S22.1,23,21,23z"/>
</g>
</svg>
